PathFileType	4	(X/Y/Z)	Run_300 01
DataRate	CameraRate	NumFrames	NumMarkers	Units	OrigDataRate	OrigDataStartFrame	OrigNumFrames
100	100	4	42	mm	100	337	128
Frame#	Time	LASI			RASI			LPSI			RPSI			RTH1			RTH2			RTH3			LTH1			LTH2			LTH3			RTB1			RTB2			RTB3			LTB1			LTB2			LTB3			RCAL			RTOE			RMT5			LCAL			LTOE			LACR			RACR			CLAV			C7			RUA1			RUA2			RUA3			RLEL			RMEL			LUA1			LUA2			LUA3			LLEL			LMEL			RFAsuperior			RFAradius			RFAulna			LFAsuperior			LFAradius			LFAulna			LMT5		
		X1	Y1	Z1	X2	Y2	Z2	X3	Y3	Z3	X4	Y4	Z4	X5	Y5	Z5	X6	Y6	Z6	X7	Y7	Z7	X8	Y8	Z8	X9	Y9	Z9	X10	Y10	Z10	X11	Y11	Z11	X12	Y12	Z12	X13	Y13	Z13	X14	Y14	Z14	X15	Y15	Z15	X16	Y16	Z16	X17	Y17	Z17	X18	Y18	Z18	X19	Y19	Z19	X20	Y20	Z20	X21	Y21	Z21	X22	Y22	Z22	X23	Y23	Z23	X24	Y24	Z24	X25	Y25	Z25	X26	Y26	Z26	X27	Y27	Z27	X28	Y28	Z28	X29	Y29	Z29	X30	Y30	Z30	X31	Y31	Z31	X32	Y32	Z32	X33	Y33	Z33	X34	Y34	Z34	X35	Y35	Z35	X36	Y36	Z36	X37	Y37	Z37	X38	Y38	Z38	X39	Y39	Z39	X40	Y40	Z40	X41	Y41	Z41	X42	Y42	Z42	

337	  3.370000	745.829481	1064.016682	-423.775127	741.313549	1033.929720	-173.795375	570.950399	1138.390055	-347.247481	572.158330	1132.777547	-262.188586	641.247797	911.405257	-125.086032	651.513904	767.006651	-144.446817	542.540770	690.992758	-160.960644	711.400210	957.121610	-489.785900	819.488936	877.698900	-460.630720	800.778511	722.133750	-449.442299	480.689912	444.918978	-220.208076	381.772849	393.241040	-172.808179	347.421969	294.850027	-231.717746	871.179407	506.572878	-379.981862	794.813597	444.530726	-444.093407	792.020379	315.862035	-363.610172	175.177456	290.661176	-263.557195	304.318730	 96.407297	-260.992202	248.411295	 92.573169	-185.146212	627.830501	213.550598	-344.215848	846.767815	138.584167	-338.288126	714.143619	1602.666630	-452.875915	723.674790	1558.852093	-126.287038	790.132179	1528.594662	-279.862288	660.667666	1609.981117	-304.207672	667.757222	1447.216983	-49.517628	587.485167	1379.905942	-74.512555	627.393160	1334.882563	-26.363457	613.420837	1238.081325	-10.852845	573.723853	1225.343590	-84.278152	625.100096	1560.912082	-550.413200	536.120497	1519.625023	-540.483211	551.193906	1489.144494	-615.075924	504.186270	1420.508038	-660.829245	444.456805	1418.262399	-609.118186	682.758263	1200.289441	-33.957106	856.308564	1214.341580	-143.678286	838.633356	1146.276899	-127.219030	549.117776	1306.649306	-628.271679	635.699973	1225.522133	-522.879809	580.792483	1190.351172	-541.312713	808.763126	106.903401	-414.704493	
338	  3.380000	746.662386	1069.182327	-426.694441	743.719923	1037.367375	-174.649470	572.060140	1141.562607	-346.013269	574.552851	1135.959267	-261.237719	644.186159	913.825635	-124.599700	654.168860	769.388042	-145.296038	544.677359	693.680190	-159.173199	710.000496	956.936660	-489.785067	817.570756	875.504204	-461.383934	795.248853	719.842772	-448.940563	475.435601	449.483990	-218.254628	374.280411	402.261197	-171.093445	335.261837	305.893788	-230.309615	872.718218	504.209726	-379.701615	802.219723	435.251227	-443.338430	810.564607	307.493765	-361.157418	162.472082	309.311066	-260.268936	284.413729	110.441135	-261.940149	229.271328	106.889026	-186.447722	656.354818	191.129467	-340.808583	880.619412	135.832694	-333.999640	713.198389	1603.795826	-454.329109	724.555282	1562.123801	-127.929810	790.430349	1531.386338	-281.453392	660.814629	1611.875677	-305.706397	668.627793	1451.282200	-50.298700	587.852602	1384.404559	-74.812539	627.555421	1339.413415	-26.444404	613.036414	1242.521967	-10.632292	572.703867	1229.957841	-83.830276	623.594374	1562.511314	-551.488057	534.559505	1521.645712	-540.894997	548.826623	1491.181903	-615.579898	501.346330	1422.528984	-661.065220	442.144958	1420.053209	-608.859028	681.822033	1204.253217	-34.521520	854.073325	1217.131311	-146.594466	836.474792	1149.156698	-129.166990	547.781367	1309.550937	-628.601731	636.091300	1229.750365	-523.435106	581.454421	1193.785101	-541.213128	845.768846	 99.606537	-409.817157	
339	  3.390000	748.416373	1073.021621	-431.065962	746.128920	1039.990212	-175.536183	573.414429	1143.104825	-345.036778	576.396582	1138.814112	-260.107656	647.656770	915.294821	-124.159942	657.755950	770.811195	-145.960936	548.229986	695.042527	-157.651709	708.775833	955.407472	-489.713705	815.659087	871.790535	-461.934784	789.836083	716.627962	-449.002921	471.707566	453.076999	-216.381201	368.124892	410.976146	-169.548177	324.191423	317.164261	-229.165169	872.488844	500.835662	-379.261343	807.775088	426.091100	-442.180757	827.256812	299.838857	-359.334910	150.854389	328.608253	-257.524361	265.065477	125.456641	-263.080336	210.571214	122.667900	-187.512773	684.013187	170.708969	-337.884434	911.783815	134.974253	-330.985549	712.378164	1603.845382	-455.930451	725.060977	1564.322284	-129.551029	790.632968	1533.150496	-282.889373	660.903597	1612.839007	-307.307973	669.043828	1454.056651	-51.031152	587.723383	1387.759568	-75.265622	627.217203	1342.658481	-26.773543	611.981599	1245.848644	-10.614859	571.139727	1233.581490	-83.519136	622.524097	1562.497151	-552.797573	533.401957	1521.438467	-541.620100	547.287476	1491.226351	-616.432134	499.929335	1422.247517	-661.733248	441.094160	1419.319957	-609.262543	680.051575	1206.778610	-34.870464	851.357191	1217.241337	-148.889622	833.406727	1149.366811	-130.415839	548.013907	1310.227515	-629.058820	637.839726	1232.077091	-523.884204	583.657085	1195.125464	-541.168813	880.240370	 94.553769	-406.229481	
340	  3.400000	750.307942	1074.541338	-434.457601	748.497318	1041.642081	-176.374046	574.815757	1142.835061	-344.415852	577.761111	1140.533289	-259.081844	651.596626	915.856169	-123.833728	661.891326	771.126332	-146.268405	552.877540	695.033867	-156.544741	707.820664	952.925237	-489.704847	813.735298	866.942611	-462.475918	784.264911	712.506297	-449.003560	469.557528	455.626776	-214.670647	363.672487	419.206056	-168.245953	314.571919	328.431290	-228.062367	871.005002	496.851806	-378.637173	811.219029	417.749351	-440.765428	841.737459	293.238619	-358.572340	141.725503	348.776919	-256.099655	246.676578	140.652162	-262.725835	191.779093	139.904756	-187.337722	709.399552	153.551806	-335.418048	939.052903	135.318662	-330.015045	711.839601	1602.814083	-457.794165	725.189449	1565.412676	-131.189223	790.725653	1533.819759	-284.312955	660.966098	1612.917459	-309.111460	668.846494	1455.626805	-51.860520	587.076811	1390.008307	-75.996279	626.329373	1344.744444	-27.319059	610.286634	1248.098200	-10.794315	569.068468	1236.207603	-83.431394	621.975691	1560.876656	-554.360565	532.826226	1519.146440	-542.709671	546.716019	1489.254076	-617.653004	499.951781	1419.677152	-662.816719	441.350555	1416.131099	-610.306616	677.580203	1207.914122	-35.060043	848.237326	1214.689877	-150.520920	829.563595	1147.074738	-130.907495	549.820841	1308.705429	-629.667386	640.915452	1232.453788	-524.144747	587.335350	1194.407791	-541.089541	910.189308	 91.166849	-404.507742	
